<svg xmlns="http://www.w3.org/2000/svg" viewBox="0 0 502 500"><defs><style>.cls-1{fill:#fcee21;}.cls-2{stroke:#000;stroke-linecap:square;stroke-linejoin:round;stroke-width:32px;}</style></defs><g id="Layer_2" data-name="Layer 2"><g id="Layer_1-2" data-name="Layer 1"><path class="cls-1" d="M251,484A234,234,0,1,1,417.19,84.56,234,234,0,0,1,251,484Z"/><path d="M251,32A219.16,219.16,0,0,1,452.82,165.2,217.13,217.13,0,0,1,405.9,404.1a219.43,219.43,0,0,1-309.8,0A218.07,218.07,0,0,1,251,32m0-32C112.38,0,0,111.93,0,250S112.38,500,251,500,502,388.07,502,250,389.62,0,251,0Z"/><polygon class="cls-2" points="220.75 125 283.25 125 252 312.5 220.75 125"/><circle cx="252" cy="375" r="31"/></g></g></svg>